<?xml version="1.0" encoding="utf-8"?>
<!-- Generator: Adobe Illustrator 25.3.1, SVG Export Plug-In . SVG Version: 6.00 Build 0)  -->
<svg version="1.1" id="Layer_1" xmlns="http://www.w3.org/2000/svg" xmlns:xlink="http://www.w3.org/1999/xlink" x="0px" y="0px"
	 viewBox="0 0 720 720" style="enable-background:new 0 0 720 720;" xml:space="preserve">
<style type="text/css">
	.st0{fill:#FFFFFF;}
	.st1{fill:#FBFDFC;}
	.st2{fill:#F7FAF8;}
	.st3{fill:#F4F8F6;}
	.st4{fill:#F1F6F4;}
	.st5{fill:#EEF4F2;}
	.st6{fill:#ECF3F0;}
	.st7{fill:#E9F1EE;}
	.st8{fill:#E6EFEC;}
	.st9{fill:#E4EEEA;}
	.st10{fill:#E1ECE8;}
	.st11{fill:#DEEBE6;}
	.st12{fill:#DCE9E5;}
	.st13{fill:#D9E8E3;}
	.st14{fill:#D6E6E1;}
	.st15{fill:#D4E5DF;}
	.st16{fill:#D1E3DD;}
	.st17{fill:#CFE2DC;}
	.st18{fill:#CCE1DA;}
	.st19{fill:#C9DFD8;}
	.st20{fill:#C7DED7;}
	.st21{fill:#C5DDD5;}
	.st22{fill:#C2DBD3;}
	.st23{fill:#BFDAD2;}
	.st24{fill:#BCD8D0;}
	.st25{fill:#BAD7CF;}
	.st26{fill:#B8D6CD;}
	.st27{fill:#B5D5CB;}
	.st28{fill:#B2D3CA;}
	.st29{fill:#B0D2C8;}
	.st30{fill:#ADD1C6;}
	.st31{fill:#ABD0C5;}
	.st32{fill:#A8CFC4;}
	.st33{fill:#A5CDC2;}
	.st34{fill:#A3CCC0;}
	.st35{fill:#A1CBBF;}
	.st36{fill:#9EC9BD;}
	.st37{fill:#9BC8BC;}
	.st38{fill:#98C7BA;}
	.st39{fill:url(#SVGID_1_);}
	.st40{fill:#00A187;}
	.st41{fill:url(#SVGID_2_);}
	.st42{fill:url(#SVGID_3_);}
	.st43{fill:url(#SVGID_4_);}
</style>
<g>
	<path class="st0" d="M285.2,562.45l0.83,0.82c-0.11-0.12-0.22-0.23-0.33-0.35C285.53,562.76,285.37,562.6,285.2,562.45
		 M251.72,529.14l31.96,31.79c-0.16-0.17-0.33-0.33-0.49-0.5l-0.82-0.81c-0.52-0.5-1.02-1.01-1.53-1.52l-28.51-28.36
		C252.13,529.54,251.92,529.34,251.72,529.14 M251.19,528.6c0.36,0.36,0.72,0.72,1.08,1.08L251.19,528.6 M547.9,282.37
		c77.72,79.41,6.18,231.5-81.03,280.94c-27.5,18.77-64.38,30.91-99.69,30.91c-29.41,0-57.74-8.43-78.66-28.47
		c21.15,22.08,50.73,31.3,81.49,31.3c35.32,0,72.19-12.14,99.69-30.91c87.57-49.64,159.32-202.76,80.07-281.9L547.9,282.37"/>
	<path class="st1" d="M282.38,559.62l0.82,0.81c-0.11-0.12-0.22-0.23-0.33-0.34C282.7,559.94,282.54,559.78,282.38,559.62
		 M248.89,526.31l2.3,2.28l1.08,1.08l0.06,0.06l28.51,28.36c-0.16-0.16-0.32-0.33-0.48-0.49l-0.82-0.81
		c-0.52-0.5-1.02-1.01-1.53-1.52l-28.51-28.36C249.3,526.71,249.09,526.51,248.89,526.31 M248.36,525.77
		c0.36,0.36,0.72,0.72,1.08,1.08L248.36,525.77 M545.07,279.54c77.72,79.41,6.18,231.5-81.03,280.94
		c-27.5,18.77-64.38,30.91-99.69,30.91c-29.41,0-57.74-8.43-78.66-28.47c0.11,0.12,0.22,0.23,0.33,0.35
		c0.82,0.85,1.65,1.67,2.49,2.48c20.92,20.04,49.25,28.47,78.66,28.47c35.32,0,72.19-12.14,99.69-30.91
		c87.21-49.44,158.75-201.53,81.03-280.94c-0.31-0.32-0.64-0.65-0.96-0.97L545.07,279.54"/>
	<path class="st2" d="M279.55,556.79l0.82,0.81c-0.11-0.12-0.22-0.23-0.33-0.34C279.88,557.11,279.71,556.95,279.55,556.79
		 M246.06,523.48l2.3,2.28l1.08,1.08l0.06,0.06l28.51,28.36c-0.16-0.16-0.32-0.33-0.48-0.49l-0.82-0.81
		c-0.52-0.5-1.02-1.01-1.53-1.52l-28.51-28.36C246.47,523.88,246.27,523.68,246.06,523.48 M245.53,522.94
		c0.36,0.36,0.72,0.72,1.08,1.08L245.53,522.94 M542.24,276.71c77.72,79.41,6.18,231.5-81.03,280.94
		c-27.5,18.77-64.38,30.91-99.69,30.91c-29.41,0-57.74-8.43-78.66-28.47c0.11,0.12,0.22,0.23,0.33,0.34
		c0.16,0.17,0.32,0.33,0.49,0.5c0.5,0.51,1.01,1.01,1.52,1.51c0.16,0.16,0.33,0.32,0.49,0.47c20.92,20.04,49.25,28.47,78.66,28.47
		c35.32,0,72.19-12.14,99.69-30.91c87.21-49.44,158.75-201.52,81.03-280.94c-0.31-0.32-0.64-0.65-0.96-0.97L542.24,276.71"/>
	<path class="st3" d="M276.72,553.96l0.82,0.81c-0.11-0.12-0.22-0.23-0.33-0.34C277.05,554.28,276.88,554.12,276.72,553.96
		 M243.24,520.65l2.3,2.28l1.08,1.08l0.06,0.06l28.51,28.36c-0.16-0.16-0.32-0.33-0.48-0.49l-0.82-0.81
		c-0.52-0.5-1.02-1.01-1.53-1.52l-28.51-28.36C243.64,521.05,243.44,520.85,243.24,520.65 M242.7,520.11
		c0.36,0.36,0.72,0.72,1.08,1.08L242.7,520.11 M539.41,273.88c77.72,79.41,6.18,231.5-81.03,280.94
		c-27.5,18.77-64.38,30.91-99.69,30.91c-29.41,0-57.74-8.43-78.66-28.47c0.11,0.12,0.22,0.23,0.33,0.34
		c0.16,0.16,0.32,0.33,0.48,0.49c0.51,0.52,1.01,1.02,1.53,1.52c0.16,0.16,0.32,0.31,0.49,0.47c20.92,20.04,49.25,28.47,78.66,28.47
		c35.32,0,72.19-12.14,99.69-30.91c87.21-49.44,158.75-201.52,81.03-280.94c-0.31-0.32-0.64-0.65-0.96-0.97L539.41,273.88"/>
	<path class="st4" d="M273.89,551.14l0.82,0.81c-0.11-0.12-0.22-0.23-0.33-0.34C274.22,551.45,274.05,551.29,273.89,551.14
		 M240.41,517.82l2.3,2.28l1.08,1.08l0.06,0.06l28.51,28.36c-0.16-0.16-0.32-0.33-0.48-0.49l-0.82-0.81
		c-0.52-0.5-1.02-1.01-1.53-1.52l-28.51-28.36C240.82,518.22,240.61,518.03,240.41,517.82 M239.87,517.28
		c0.36,0.36,0.72,0.72,1.08,1.08L239.87,517.28 M536.58,271.05c77.72,79.41,6.18,231.5-81.03,280.94
		c-27.5,18.77-64.38,30.91-99.69,30.91c-29.41,0-57.74-8.43-78.66-28.47c0.11,0.12,0.22,0.23,0.33,0.34
		c0.16,0.16,0.32,0.33,0.48,0.49c0.51,0.52,1.01,1.02,1.53,1.52c0.16,0.16,0.32,0.31,0.49,0.47c20.92,20.04,49.25,28.47,78.66,28.47
		c35.32,0,72.19-12.14,99.69-30.91c87.21-49.44,158.75-201.53,81.03-280.94c-0.31-0.32-0.64-0.65-0.96-0.97L536.58,271.05"/>
	<path class="st5" d="M271.06,548.31l0.82,0.81c-0.11-0.12-0.22-0.23-0.33-0.34C271.39,548.62,271.22,548.46,271.06,548.31
		 M237.58,515l2.3,2.28l1.08,1.08l0.06,0.06l28.51,28.36c-0.16-0.16-0.32-0.33-0.48-0.49l-0.82-0.81c-0.52-0.5-1.02-1.01-1.53-1.52
		l-28.51-28.36C237.99,515.39,237.78,515.2,237.58,515 M237.04,514.44c0.36,0.37,0.73,0.73,1.1,1.1L237.04,514.44 M533.75,268.22
		c77.72,79.41,6.18,231.5-81.03,280.94c-27.5,18.77-64.38,30.91-99.69,30.91c-29.41,0-57.74-8.43-78.66-28.47
		c0.11,0.12,0.22,0.23,0.33,0.34c0.16,0.16,0.32,0.33,0.48,0.49c0.51,0.52,1.01,1.02,1.53,1.52c0.16,0.16,0.32,0.31,0.49,0.47
		c20.92,20.04,49.25,28.47,78.66,28.47c35.32,0,72.19-12.14,99.69-30.91c87.21-49.44,158.75-201.53,81.03-280.94
		c-0.31-0.32-0.64-0.65-0.96-0.97L533.75,268.22"/>
	<path class="st6" d="M268.24,545.48l0.82,0.81c-0.11-0.12-0.22-0.23-0.33-0.34C268.56,545.79,268.4,545.63,268.24,545.48
		 M234.75,512.17l2.29,2.27l1.1,1.1l0.05,0.05l28.51,28.36c-0.16-0.16-0.32-0.33-0.48-0.49l-0.82-0.81
		c-0.52-0.5-1.02-1.01-1.53-1.52l-28.51-28.36C235.16,512.57,234.95,512.37,234.75,512.17 M234.21,511.61
		c0.36,0.37,0.73,0.73,1.1,1.1L234.21,511.61 M530.93,265.39c77.72,79.41,6.18,231.5-81.03,280.94
		c-27.5,18.77-64.38,30.91-99.69,30.91c-29.41,0-57.74-8.43-78.66-28.47c0.11,0.12,0.22,0.23,0.33,0.34
		c0.16,0.16,0.32,0.33,0.48,0.49c0.51,0.52,1.01,1.02,1.53,1.52c0.16,0.16,0.32,0.31,0.49,0.47c20.92,20.04,49.25,28.47,78.66,28.47
		c35.32,0,72.19-12.14,99.69-30.91c87.21-49.44,158.75-201.53,81.03-280.94c-0.31-0.32-0.64-0.65-0.96-0.97L530.93,265.39"/>
	<path class="st7" d="M265.41,542.65l0.82,0.81c-0.11-0.12-0.22-0.23-0.33-0.34C265.73,542.96,265.57,542.8,265.41,542.65
		 M231.92,509.34l2.29,2.27l1.1,1.1l0.06,0.06l28.51,28.36c-0.16-0.16-0.32-0.33-0.48-0.49l-0.82-0.81
		c-0.52-0.5-1.02-1.01-1.53-1.52l-28.51-28.36C232.33,509.74,232.12,509.54,231.92,509.34 M231.38,508.78
		c0.36,0.37,0.73,0.73,1.1,1.1L231.38,508.78 M528.1,262.56c77.72,79.41,6.18,231.5-81.03,280.94
		c-27.5,18.77-64.38,30.91-99.69,30.91c-29.41,0-57.74-8.43-78.66-28.47c0.11,0.12,0.22,0.23,0.33,0.34
		c0.16,0.16,0.32,0.33,0.48,0.49c0.51,0.52,1.01,1.02,1.53,1.52c0.16,0.16,0.32,0.31,0.49,0.47c20.92,20.04,49.25,28.47,78.66,28.47
		c35.32,0,72.19-12.14,99.69-30.91c87.21-49.44,158.75-201.53,81.03-280.94c-0.31-0.32-0.64-0.65-0.96-0.97L528.1,262.56"/>
	<path class="st8" d="M262.58,539.82l0.82,0.81c-0.11-0.12-0.22-0.23-0.33-0.34C262.9,540.13,262.74,539.97,262.58,539.82
		 M229.09,506.51l2.29,2.27l1.1,1.1l0.06,0.06l28.51,28.36c-0.16-0.16-0.32-0.33-0.48-0.49l-0.82-0.81
		c-0.52-0.5-1.02-1.01-1.53-1.52l-28.51-28.36C229.5,506.91,229.29,506.71,229.09,506.51 M228.55,505.95
		c0.36,0.37,0.73,0.73,1.1,1.1L228.55,505.95 M525.27,259.74c77.72,79.41,6.18,231.5-81.03,280.94
		c-27.5,18.77-64.38,30.91-99.69,30.91c-29.41,0-57.74-8.43-78.66-28.47c0.11,0.12,0.22,0.23,0.33,0.34
		c0.16,0.16,0.32,0.33,0.48,0.49c0.51,0.52,1.02,1.02,1.53,1.52c0.16,0.16,0.32,0.31,0.49,0.47c20.92,20.04,49.25,28.47,78.66,28.47
		c35.32,0,72.19-12.14,99.69-30.91c87.21-49.44,158.75-201.53,81.03-280.94c-0.31-0.32-0.64-0.65-0.96-0.97L525.27,259.74"/>
	<path class="st9" d="M259.75,536.99l0.82,0.81c-0.11-0.12-0.22-0.23-0.33-0.34C260.07,537.31,259.91,537.15,259.75,536.99
		 M226.26,503.68l2.29,2.27l1.1,1.1l0.05,0.05l28.51,28.36c-0.16-0.16-0.32-0.33-0.48-0.49l-0.82-0.81
		c-0.52-0.5-1.02-1.01-1.53-1.52l-28.51-28.36C226.67,504.08,226.46,503.88,226.26,503.68 M225.72,503.13
		c0.36,0.37,0.73,0.73,1.1,1.1L225.72,503.13 M522.44,256.91c77.72,79.41,6.18,231.5-81.03,280.94
		c-27.5,18.77-64.38,30.91-99.69,30.91c-29.41,0-57.74-8.43-78.66-28.47c0.11,0.12,0.22,0.23,0.33,0.34
		c0.16,0.16,0.32,0.33,0.48,0.49c0.51,0.52,1.02,1.02,1.53,1.52c0.16,0.16,0.32,0.31,0.49,0.47c20.92,20.04,49.25,28.47,78.66,28.47
		c35.32,0,72.19-12.14,99.69-30.91c87.21-49.44,158.75-201.53,81.03-280.94c-0.31-0.32-0.64-0.65-0.96-0.97L522.44,256.91"/>
	<path class="st10" d="M256.92,534.16l0.82,0.81c-0.11-0.12-0.22-0.23-0.33-0.34C257.24,534.48,257.08,534.32,256.92,534.16
		 M223.43,500.85l2.29,2.27l1.1,1.1l0.05,0.05l28.51,28.36c-0.16-0.16-0.32-0.33-0.48-0.49l-0.81-0.81
		c-0.52-0.5-1.03-1.02-1.54-1.54l-28.5-28.35C223.84,501.25,223.64,501.05,223.43,500.85 M222.89,500.3c0.36,0.37,0.73,0.73,1.1,1.1
		L222.89,500.3 M519.6,254.07c77.72,79.41,6.19,231.51-81.02,280.94c-27.5,18.77-64.38,30.91-99.69,30.91
		c-29.41,0-57.74-8.43-78.66-28.47c0.11,0.12,0.22,0.23,0.33,0.34c0.16,0.16,0.32,0.33,0.48,0.49c0.51,0.52,1.01,1.02,1.53,1.52
		c0.16,0.16,0.32,0.31,0.49,0.47c20.92,20.04,49.25,28.47,78.66,28.47c35.32,0,72.19-12.14,99.69-30.91
		c87.21-49.44,158.75-201.53,81.03-280.94c-0.31-0.32-0.64-0.65-0.96-0.97L519.6,254.07"/>
	<path class="st11" d="M254.1,531.34l0.81,0.81c-0.11-0.12-0.22-0.23-0.33-0.34C254.42,531.65,254.26,531.49,254.1,531.34
		 M220.6,498.02l2.29,2.27l1.1,1.1l0.05,0.05l28.5,28.35c-0.16-0.16-0.32-0.33-0.48-0.49l-0.81-0.8c-0.52-0.5-1.03-1.02-1.54-1.54
		l-28.5-28.35C221.01,498.42,220.81,498.22,220.6,498.02 M220.06,497.47c0.36,0.37,0.73,0.74,1.1,1.1L220.06,497.47 M516.79,251.25
		c77.7,79.42,6.17,231.5-81.04,280.93c-27.5,18.77-64.38,30.91-99.69,30.91c-29.41,0-57.74-8.43-78.66-28.47
		c0.11,0.12,0.22,0.23,0.33,0.34c0.16,0.16,0.32,0.33,0.48,0.49c0.51,0.52,1.02,1.02,1.53,1.52c0.16,0.16,0.32,0.31,0.49,0.47
		c20.92,20.04,49.25,28.47,78.66,28.47c35.32,0,72.19-12.14,99.69-30.91c87.21-49.44,158.75-201.53,81.02-280.94
		c-0.31-0.32-0.63-0.64-0.95-0.96L516.79,251.25"/>
	<path class="st12" d="M251.27,528.51l0.81,0.8c-0.11-0.11-0.22-0.23-0.33-0.34C251.59,528.82,251.43,528.67,251.27,528.51
		 M217.77,495.19l2.29,2.27l1.1,1.1l0.05,0.05l28.5,28.35c-0.16-0.16-0.32-0.33-0.47-0.49l-0.82-0.81c-0.52-0.5-1.02-1.01-1.53-1.52
		l-28.52-28.37C218.18,495.59,217.98,495.39,217.77,495.19 M217.24,494.65c0.36,0.36,0.72,0.72,1.08,1.08L217.24,494.65
		 M513.95,248.42c77.72,79.41,6.18,231.5-81.03,280.94c-27.5,18.77-64.38,30.91-99.69,30.91c-29.41,0-57.73-8.42-78.65-28.47
		c0.11,0.12,0.22,0.23,0.33,0.34c0.16,0.16,0.32,0.33,0.48,0.49c0.51,0.52,1.01,1.02,1.53,1.52c0.16,0.16,0.32,0.31,0.49,0.47
		c20.92,20.04,49.25,28.47,78.66,28.47c35.32,0,72.19-12.14,99.69-30.91c87.21-49.43,158.73-201.52,81.04-280.93
		c-0.32-0.33-0.64-0.65-0.96-0.97L513.95,248.42"/>
	<path class="st13" d="M248.43,525.67l0.82,0.81c-0.11-0.12-0.22-0.23-0.33-0.34C248.76,525.99,248.59,525.83,248.43,525.67
		 M214.95,492.36l2.3,2.28l1.08,1.08l0.06,0.06l28.52,28.37c-0.16-0.16-0.32-0.33-0.48-0.49l-0.82-0.81
		c-0.52-0.5-1.03-1.01-1.53-1.52l-28.51-28.36C215.35,492.76,215.15,492.56,214.95,492.36 M214.41,491.82
		c0.36,0.36,0.72,0.72,1.08,1.08L214.41,491.82 M511.12,245.59c77.72,79.41,6.18,231.5-81.03,280.94
		c-27.5,18.77-64.38,30.91-99.69,30.91c-29.41,0-57.74-8.43-78.66-28.47c0.11,0.11,0.22,0.23,0.33,0.34
		c0.16,0.16,0.32,0.33,0.48,0.49c0.51,0.52,1.03,1.03,1.54,1.54c0.16,0.16,0.32,0.31,0.48,0.46c20.92,20.04,49.25,28.47,78.65,28.47
		c35.32,0,72.19-12.14,99.69-30.91c87.21-49.44,158.75-201.53,81.03-280.94c-0.31-0.32-0.64-0.65-0.96-0.97L511.12,245.59"/>
	<path class="st14" d="M245.6,522.85l0.82,0.81c-0.11-0.12-0.22-0.23-0.33-0.34C245.93,523.16,245.76,523,245.6,522.85
		 M212.12,489.53l2.3,2.29l1.08,1.08l0.06,0.06l28.51,28.36c-0.16-0.16-0.32-0.33-0.48-0.49l-0.82-0.81
		c-0.52-0.5-1.03-1.01-1.53-1.52l-28.51-28.36C212.52,489.93,212.32,489.74,212.12,489.53 M211.59,488.99
		c0.36,0.36,0.72,0.72,1.08,1.08L211.59,488.99 M508.29,242.76c77.72,79.41,6.18,231.5-81.03,280.94
		c-27.5,18.77-64.38,30.91-99.69,30.91c-29.41,0-57.74-8.43-78.66-28.47c0.11,0.12,0.22,0.23,0.33,0.34
		c0.16,0.16,0.32,0.33,0.47,0.49c0.51,0.52,1.03,1.03,1.54,1.54c0.16,0.16,0.32,0.31,0.48,0.46c20.92,20.04,49.25,28.47,78.66,28.47
		c35.32,0,72.19-12.14,99.69-30.91c87.21-49.44,158.75-201.52,81.03-280.94c-0.31-0.32-0.64-0.65-0.96-0.97L508.29,242.76"/>
	<path class="st15" d="M242.77,520.02l0.82,0.81c-0.11-0.12-0.22-0.23-0.33-0.34C243.1,520.33,242.93,520.17,242.77,520.02
		 M209.29,486.71l2.3,2.29l1.08,1.08l0.06,0.06l28.51,28.36c-0.16-0.16-0.32-0.33-0.48-0.49l-0.82-0.82c-0.51-0.5-1.02-1-1.52-1.51
		L209.9,487.3C209.69,487.1,209.49,486.91,209.29,486.71 M208.77,486.17c0.35,0.35,0.7,0.71,1.06,1.06L208.77,486.17 M505.47,239.93
		c77.72,79.41,6.18,231.5-81.03,280.94c-27.5,18.77-64.38,30.91-99.69,30.91c-29.41,0-57.74-8.43-78.66-28.47
		c0.11,0.12,0.22,0.23,0.33,0.34c0.16,0.16,0.32,0.33,0.48,0.49c0.51,0.52,1.01,1.02,1.53,1.52c0.16,0.16,0.33,0.32,0.49,0.47
		c20.92,20.04,49.25,28.47,78.66,28.47c35.32,0,72.19-12.14,99.69-30.91c87.21-49.44,158.75-201.52,81.03-280.94
		c-0.31-0.32-0.64-0.65-0.96-0.97L505.47,239.93"/>
	<path class="st16" d="M239.94,517.18l0.82,0.82c-0.11-0.12-0.22-0.23-0.33-0.35C240.27,517.5,240.1,517.34,239.94,517.18
		 M206.46,483.88l2.31,2.29l1.06,1.06l0.07,0.07l28.53,28.38c-0.16-0.17-0.32-0.33-0.48-0.5l-0.82-0.82
		c-0.52-0.5-1.03-1.01-1.53-1.52l-28.51-28.36C206.87,484.27,206.66,484.08,206.46,483.88 M205.93,483.33
		c0.36,0.36,0.72,0.72,1.08,1.08L205.93,483.33 M502.64,237.1c77.72,79.41,6.18,231.5-81.03,280.94
		c-27.5,18.77-64.38,30.91-99.69,30.91c-29.41,0-57.74-8.43-78.66-28.47c0.11,0.12,0.22,0.23,0.33,0.34
		c0.16,0.16,0.32,0.33,0.48,0.49c0.51,0.52,1.02,1.02,1.53,1.52c0.16,0.16,0.32,0.31,0.49,0.47c20.92,20.04,49.25,28.47,78.66,28.47
		c35.32,0,72.19-12.14,99.69-30.91c87.21-49.44,158.75-201.52,81.03-280.94c-0.31-0.32-0.64-0.65-0.96-0.97L502.64,237.1"/>
	<path class="st17" d="M237.12,514.36l0.82,0.82c-0.11-0.12-0.22-0.23-0.33-0.35C237.44,514.68,237.28,514.51,237.12,514.36
		 M203.63,481.05l2.3,2.29l1.08,1.08l0.06,0.06l28.51,28.36c-0.16-0.17-0.32-0.33-0.48-0.5l-0.81-0.81
		c-0.52-0.5-1.02-1.01-1.53-1.52l-28.51-28.36C204.04,481.45,203.83,481.25,203.63,481.05 M203.1,480.5
		c0.36,0.36,0.72,0.72,1.08,1.08L203.1,480.5 M499.81,234.28c77.72,79.41,6.18,231.5-81.03,280.94
		c-27.5,18.77-64.38,30.91-99.69,30.91c-29.41,0-57.74-8.43-78.66-28.47c0.11,0.12,0.22,0.23,0.33,0.35
		c0.16,0.16,0.32,0.33,0.48,0.49c0.51,0.52,1.02,1.02,1.53,1.52c0.16,0.16,0.32,0.31,0.49,0.47c20.92,20.04,49.25,28.47,78.66,28.47
		c35.32,0,72.19-12.14,99.69-30.91c87.21-49.44,158.75-201.52,81.03-280.94c-0.31-0.32-0.64-0.65-0.96-0.97L499.81,234.28"/>
	<path class="st18" d="M234.29,511.53l0.81,0.81c-0.11-0.11-0.22-0.23-0.33-0.34C234.61,511.84,234.45,511.69,234.29,511.53
		 M200.8,478.22l2.3,2.28l1.08,1.08l0.06,0.06l28.51,28.36c-0.16-0.16-0.32-0.33-0.48-0.49l-0.83-0.82c-0.51-0.5-1.02-1-1.52-1.51
		l-28.52-28.37C201.21,478.62,201,478.42,200.8,478.22 M200.27,477.68c0.36,0.36,0.72,0.72,1.08,1.08L200.27,477.68 M496.98,231.45
		c77.72,79.41,6.18,231.5-81.03,280.94c-27.5,18.77-64.38,30.91-99.69,30.91c-29.41,0-57.73-8.42-78.65-28.47
		c0.11,0.12,0.22,0.23,0.33,0.35c0.16,0.17,0.32,0.33,0.48,0.5c0.5,0.51,1.01,1.01,1.52,1.51c0.16,0.16,0.33,0.32,0.49,0.47
		c20.92,20.04,49.25,28.47,78.66,28.47c35.32,0,72.19-12.14,99.69-30.91c87.21-49.44,158.75-201.52,81.03-280.94
		c-0.31-0.32-0.64-0.65-0.96-0.97L496.98,231.45"/>
	<path class="st19" d="M231.45,508.7l0.83,0.82c-0.11-0.12-0.22-0.23-0.33-0.35C231.78,509.01,231.62,508.85,231.45,508.7
		 M197.97,475.39l2.3,2.29l1.08,1.08l0.06,0.06l28.52,28.37c-0.16-0.17-0.33-0.33-0.49-0.5l-0.82-0.81
		c-0.52-0.5-1.02-1.01-1.53-1.52l-28.51-28.36C198.38,475.79,198.17,475.59,197.97,475.39 M197.44,474.85
		c0.36,0.36,0.72,0.72,1.08,1.08L197.44,474.85 M494.15,228.62c77.72,79.41,6.18,231.5-81.03,280.94
		c-27.5,18.77-64.38,30.91-99.69,30.91c-29.41,0-57.74-8.43-78.66-28.47c0.11,0.11,0.22,0.23,0.33,0.34
		c0.16,0.17,0.32,0.33,0.48,0.5c0.51,0.52,1.02,1.02,1.53,1.52c0.16,0.16,0.33,0.32,0.49,0.47c20.92,20.04,49.25,28.47,78.65,28.47
		c35.32,0,72.19-12.14,99.69-30.91c87.21-49.44,158.75-201.53,81.03-280.94c-0.31-0.32-0.64-0.65-0.96-0.97L494.15,228.62"/>
	<path class="st20" d="M228.63,505.87l0.82,0.81c-0.11-0.12-0.22-0.23-0.33-0.34C228.95,506.19,228.79,506.03,228.63,505.87
		 M195.14,472.56l2.3,2.28l1.08,1.08l0.06,0.06l28.51,28.36c-0.16-0.16-0.32-0.33-0.48-0.49l-0.82-0.81
		c-0.52-0.5-1.02-1.01-1.53-1.52l-28.51-28.36C195.55,472.96,195.34,472.76,195.14,472.56 M194.61,472.02
		c0.36,0.36,0.72,0.72,1.08,1.08L194.61,472.02 M491.32,225.79c77.72,79.41,6.18,231.5-81.03,280.94
		c-27.5,18.77-64.38,30.91-99.69,30.91c-29.41,0-57.74-8.43-78.66-28.47c0.11,0.12,0.22,0.23,0.33,0.35
		c0.16,0.16,0.32,0.33,0.48,0.49c0.51,0.52,1.01,1.02,1.53,1.52c0.16,0.16,0.32,0.31,0.48,0.47c20.92,20.04,49.25,28.47,78.66,28.47
		c35.32,0,72.19-12.14,99.69-30.91c87.21-49.44,158.75-201.52,81.03-280.94c-0.31-0.32-0.64-0.65-0.96-0.97L491.32,225.79"/>
	<path class="st21" d="M225.8,503.04l0.82,0.81c-0.11-0.12-0.22-0.23-0.33-0.34C226.13,503.36,225.96,503.2,225.8,503.04
		 M192.31,469.73l2.3,2.28l1.08,1.08l0.06,0.06l28.51,28.36c-0.16-0.16-0.32-0.33-0.48-0.49l-0.82-0.81
		c-0.52-0.5-1.02-1.01-1.53-1.52l-28.51-28.36C192.72,470.13,192.52,469.93,192.31,469.73 M191.78,469.19
		c0.36,0.36,0.72,0.72,1.08,1.08L191.78,469.19 M488.49,222.96c77.72,79.41,6.18,231.5-81.03,280.94
		c-27.5,18.77-64.38,30.91-99.69,30.91c-29.41,0-57.74-8.43-78.66-28.47c0.11,0.12,0.22,0.23,0.33,0.34
		c0.16,0.17,0.32,0.33,0.49,0.5c0.5,0.51,1.01,1.01,1.52,1.51c0.16,0.16,0.33,0.32,0.49,0.47c20.92,20.04,49.25,28.47,78.66,28.47
		c35.32,0,72.19-12.14,99.69-30.91c87.21-49.44,158.75-201.52,81.03-280.94c-0.31-0.32-0.64-0.65-0.96-0.97L488.49,222.96"/>
	<path class="st22" d="M222.97,500.21l0.82,0.81c-0.11-0.12-0.22-0.23-0.33-0.34C223.3,500.53,223.13,500.37,222.97,500.21
		 M189.49,466.9l2.3,2.28l1.08,1.08l0.06,0.06l28.51,28.36c-0.16-0.16-0.32-0.33-0.48-0.49l-0.82-0.81
		c-0.52-0.5-1.02-1.01-1.53-1.52L190.1,467.5C189.89,467.3,189.69,467.1,189.49,466.9 M188.95,466.36c0.36,0.36,0.72,0.72,1.08,1.08
		L188.95,466.36 M485.66,220.13c77.72,79.41,6.18,231.5-81.03,280.94c-27.5,18.77-64.38,30.91-99.69,30.91
		c-29.41,0-57.74-8.43-78.66-28.47c0.11,0.12,0.22,0.23,0.33,0.34c0.16,0.16,0.32,0.33,0.48,0.49c0.51,0.52,1.01,1.02,1.53,1.52
		c0.16,0.16,0.32,0.31,0.49,0.47c20.92,20.04,49.25,28.47,78.66,28.47c35.32,0,72.19-12.14,99.69-30.91
		c87.21-49.44,158.75-201.53,81.03-280.94c-0.31-0.32-0.64-0.65-0.96-0.97L485.66,220.13"/>
	<path class="st23" d="M220.14,497.39l0.82,0.81c-0.11-0.12-0.22-0.23-0.33-0.34C220.47,497.7,220.3,497.54,220.14,497.39
		 M186.66,464.07l2.3,2.28l1.08,1.08l0.06,0.06l28.51,28.36c-0.16-0.16-0.32-0.33-0.48-0.49l-0.82-0.81
		c-0.52-0.5-1.02-1.01-1.53-1.52l-28.51-28.36C187.07,464.47,186.86,464.28,186.66,464.07 M186.11,463.52
		c0.36,0.37,0.73,0.73,1.1,1.1L186.11,463.52 M482.83,217.3c77.72,79.41,6.18,231.5-81.03,280.94
		c-27.5,18.77-64.38,30.91-99.69,30.91c-29.41,0-57.74-8.43-78.66-28.47c0.11,0.12,0.22,0.23,0.33,0.34
		c0.16,0.16,0.32,0.33,0.48,0.49c0.51,0.52,1.01,1.02,1.53,1.52c0.16,0.16,0.32,0.31,0.49,0.47c20.92,20.04,49.25,28.47,78.66,28.47
		c35.32,0,72.19-12.14,99.69-30.91c87.21-49.44,158.75-201.53,81.03-280.94c-0.31-0.32-0.64-0.65-0.96-0.97L482.83,217.3"/>
	<path class="st24" d="M217.31,494.56l0.82,0.81c-0.11-0.12-0.22-0.23-0.33-0.34C217.64,494.87,217.47,494.71,217.31,494.56
		 M183.83,461.25l2.29,2.27l1.1,1.1l0.06,0.06l28.51,28.36c-0.16-0.16-0.32-0.33-0.48-0.49l-0.82-0.81
		c-0.52-0.5-1.02-1.01-1.53-1.52l-28.51-28.36C184.24,461.65,184.03,461.45,183.83,461.25 M183.29,460.69
		c0.36,0.37,0.73,0.73,1.1,1.1L183.29,460.69 M480,214.47c77.72,79.41,6.18,231.5-81.03,280.94c-27.5,18.77-64.38,30.91-99.69,30.91
		c-29.41,0-57.74-8.43-78.66-28.47c0.11,0.12,0.22,0.23,0.33,0.34c0.16,0.16,0.32,0.33,0.48,0.49c0.51,0.52,1.01,1.02,1.53,1.52
		c0.16,0.16,0.33,0.31,0.49,0.47c20.92,20.04,49.25,28.47,78.66,28.47c35.32,0,72.19-12.14,99.69-30.91
		c87.21-49.44,158.75-201.53,81.03-280.94c-0.31-0.32-0.64-0.65-0.96-0.97L480,214.47"/>
	<path class="st25" d="M214.49,491.73l0.82,0.81c-0.11-0.12-0.22-0.23-0.33-0.34C214.81,492.04,214.64,491.88,214.49,491.73
		 M181,458.42l2.29,2.27l1.1,1.1l0.06,0.06l28.51,28.36c-0.16-0.16-0.32-0.33-0.48-0.49l-0.82-0.81c-0.52-0.5-1.02-1.01-1.53-1.52
		l-28.51-28.36C181.41,458.82,181.2,458.62,181,458.42 M180.46,457.86c0.36,0.37,0.73,0.73,1.1,1.1L180.46,457.86 M477.18,211.64
		c77.72,79.41,6.18,231.5-81.03,280.94c-27.5,18.77-64.38,30.91-99.69,30.91c-29.41,0-57.74-8.43-78.66-28.47
		c0.11,0.12,0.22,0.23,0.33,0.34c0.16,0.16,0.32,0.33,0.48,0.49c0.51,0.52,1.01,1.02,1.53,1.52c0.16,0.16,0.32,0.31,0.49,0.47
		c20.92,20.04,49.25,28.47,78.66,28.47c35.32,0,72.19-12.14,99.69-30.91c87.21-49.44,158.75-201.53,81.03-280.94
		c-0.31-0.32-0.64-0.65-0.96-0.97L477.18,211.64"/>
	<path class="st26" d="M211.66,488.9l0.82,0.81c-0.11-0.12-0.22-0.23-0.33-0.34C211.98,489.21,211.82,489.05,211.66,488.9
		 M178.17,455.59l2.29,2.27l1.1,1.1l0.06,0.06l28.51,28.36c-0.16-0.16-0.32-0.33-0.48-0.49l-0.82-0.81
		c-0.52-0.5-1.02-1.01-1.53-1.52l-28.51-28.36C178.58,455.99,178.37,455.79,178.17,455.59 M177.63,455.03
		c0.36,0.37,0.73,0.73,1.1,1.1L177.63,455.03 M474.35,208.81c77.72,79.41,6.18,231.5-81.03,280.94
		c-27.5,18.77-64.38,30.91-99.69,30.91c-29.41,0-57.74-8.43-78.66-28.47c0.11,0.12,0.22,0.23,0.33,0.34
		c0.16,0.16,0.32,0.33,0.48,0.49c0.51,0.52,1.01,1.02,1.53,1.52c0.16,0.16,0.32,0.31,0.49,0.47c20.92,20.04,49.25,28.47,78.66,28.47
		c35.32,0,72.19-12.14,99.69-30.91c87.21-49.44,158.75-201.53,81.03-280.94c-0.31-0.32-0.64-0.65-0.96-0.97L474.35,208.81"/>
	<path class="st27" d="M208.83,486.07l0.82,0.81c-0.11-0.12-0.22-0.23-0.33-0.34C209.15,486.38,208.99,486.22,208.83,486.07
		 M175.34,452.76l2.29,2.27l1.1,1.1l0.05,0.05l28.51,28.36c-0.16-0.16-0.32-0.33-0.48-0.49l-0.82-0.81
		c-0.52-0.5-1.02-1.01-1.53-1.52l-28.51-28.36C175.75,453.16,175.54,452.96,175.34,452.76 M174.8,452.2c0.36,0.37,0.73,0.73,1.1,1.1
		L174.8,452.2 M471.51,205.98c77.72,79.41,6.19,231.51-81.02,280.94c-27.5,18.77-64.38,30.91-99.69,30.91
		c-29.41,0-57.74-8.43-78.66-28.47c0.11,0.12,0.22,0.23,0.33,0.34c0.16,0.16,0.32,0.33,0.48,0.49c0.51,0.52,1.01,1.02,1.53,1.52
		c0.16,0.16,0.32,0.31,0.49,0.47c20.92,20.04,49.25,28.47,78.66,28.47c35.32,0,72.19-12.14,99.69-30.91
		c87.21-49.44,158.75-201.53,81.03-280.94c-0.31-0.32-0.64-0.65-0.96-0.97L471.51,205.98"/>
	<path class="st28" d="M206,483.24l0.82,0.81c-0.11-0.12-0.22-0.23-0.33-0.34C206.32,483.56,206.16,483.4,206,483.24 M172.51,449.93
		l2.29,2.27l1.1,1.1l0.05,0.05l28.51,28.36c-0.16-0.16-0.32-0.33-0.48-0.49l-0.82-0.81c-0.52-0.5-1.02-1.01-1.53-1.52l-28.51-28.36
		C172.92,450.33,172.71,450.13,172.51,449.93 M171.97,449.38c0.36,0.37,0.73,0.73,1.1,1.1L171.97,449.38 M468.69,203.16
		c77.7,79.42,6.17,231.5-81.04,280.93c-27.5,18.77-64.38,30.91-99.69,30.91c-29.41,0-57.74-8.43-78.66-28.47
		c0.11,0.12,0.22,0.23,0.33,0.34c0.16,0.16,0.32,0.33,0.48,0.49c0.51,0.52,1.02,1.02,1.53,1.52c0.16,0.16,0.32,0.31,0.49,0.47
		c20.92,20.04,49.25,28.47,78.66,28.47c35.32,0,72.19-12.14,99.69-30.91c87.21-49.44,158.75-201.53,81.02-280.94
		c-0.31-0.32-0.63-0.64-0.95-0.96L468.69,203.16"/>
	<path class="st29" d="M203.17,480.41l0.82,0.81c-0.11-0.12-0.22-0.23-0.33-0.34C203.49,480.73,203.33,480.57,203.17,480.41
		 M169.68,447.1l2.29,2.27l1.1,1.1l0.05,0.05l28.51,28.36c-0.16-0.16-0.32-0.33-0.48-0.49l-0.81-0.81c-0.52-0.5-1.03-1.02-1.54-1.54
		l-28.5-28.35C170.09,447.5,169.89,447.3,169.68,447.1 M169.14,446.55c0.36,0.37,0.73,0.74,1.1,1.1L169.14,446.55 M465.86,200.33
		c77.72,79.41,6.18,231.5-81.03,280.94c-27.5,18.77-64.38,30.91-99.69,30.91c-29.41,0-57.74-8.43-78.66-28.47
		c0.11,0.12,0.22,0.23,0.33,0.34c0.16,0.16,0.32,0.33,0.48,0.49c0.51,0.52,1.01,1.02,1.53,1.52c0.16,0.16,0.32,0.31,0.49,0.47
		c20.92,20.04,49.25,28.47,78.66,28.47c35.32,0,72.19-12.14,99.69-30.91c87.21-49.43,158.73-201.52,81.04-280.93
		c-0.32-0.33-0.64-0.65-0.96-0.97L465.86,200.33"/>
	<path class="st30" d="M200.35,477.59l0.81,0.81c-0.11-0.12-0.22-0.23-0.33-0.34C200.67,477.9,200.51,477.74,200.35,477.59
		 M166.85,444.27l2.29,2.27l1.1,1.1l0.05,0.05l28.5,28.35c-0.16-0.16-0.32-0.33-0.48-0.49l-0.81-0.8c-0.52-0.5-1.03-1.02-1.54-1.53
		l-28.51-28.36C167.26,444.67,167.05,444.47,166.85,444.27 M166.32,443.73c0.36,0.36,0.72,0.72,1.08,1.08L166.32,443.73
		 M463.03,197.5c77.72,79.41,6.18,231.5-81.03,280.94c-27.5,18.77-64.38,30.91-99.69,30.91c-29.41,0-57.74-8.43-78.66-28.47
		c0.11,0.12,0.22,0.23,0.33,0.34c0.16,0.16,0.32,0.33,0.48,0.49c0.51,0.52,1.01,1.02,1.53,1.52c0.16,0.16,0.32,0.31,0.49,0.47
		c20.92,20.04,49.25,28.47,78.66,28.47c35.32,0,72.19-12.14,99.69-30.91c87.21-49.44,158.75-201.52,81.03-280.94
		c-0.31-0.32-0.64-0.65-0.96-0.97L463.03,197.5"/>
	<path class="st31" d="M197.52,474.76l0.81,0.8c-0.11-0.11-0.22-0.23-0.33-0.34C197.84,475.07,197.68,474.91,197.52,474.76
		 M164.02,441.44l2.3,2.28l1.08,1.08l0.06,0.06l28.51,28.36c-0.16-0.16-0.32-0.33-0.48-0.49l-0.82-0.81
		c-0.52-0.5-1.02-1.01-1.53-1.52l-28.52-28.37C164.43,441.84,164.22,441.64,164.02,441.44 M163.5,440.91
		c0.35,0.35,0.7,0.71,1.06,1.06L163.5,440.91 M460.2,194.67c77.72,79.41,6.18,231.5-81.03,280.94
		c-27.5,18.77-64.38,30.91-99.69,30.91c-29.41,0-57.73-8.42-78.65-28.47c0.11,0.12,0.22,0.23,0.33,0.34
		c0.16,0.16,0.32,0.33,0.48,0.49c0.51,0.52,1.01,1.02,1.53,1.52c0.16,0.16,0.32,0.31,0.49,0.47c20.92,20.04,49.25,28.47,78.66,28.47
		c35.32,0,72.19-12.14,99.69-30.91C469.21,429,540.75,276.91,463.03,197.5c-0.31-0.32-0.64-0.65-0.96-0.97L460.2,194.67"/>
	<path class="st32" d="M194.68,471.92l0.82,0.81c-0.11-0.12-0.22-0.23-0.33-0.34C195.01,472.24,194.84,472.08,194.68,471.92
		 M161.2,438.61l2.31,2.29l1.06,1.06l0.07,0.07l28.52,28.37c-0.16-0.16-0.32-0.33-0.48-0.49l-0.82-0.81
		c-0.52-0.5-1.03-1.01-1.53-1.52l-28.51-28.36C161.6,439.01,161.4,438.81,161.2,438.61 M160.66,438.07
		c0.36,0.36,0.72,0.72,1.08,1.08L160.66,438.07 M457.37,191.84c77.72,79.41,6.18,231.5-81.03,280.94
		c-27.5,18.77-64.38,30.91-99.69,30.91c-29.41,0-57.74-8.43-78.66-28.47c0.11,0.11,0.22,0.23,0.33,0.34
		c0.16,0.16,0.32,0.33,0.48,0.49c0.51,0.52,1.03,1.03,1.54,1.54c0.16,0.16,0.32,0.31,0.48,0.46c20.92,20.04,49.25,28.47,78.65,28.47
		c35.32,0,72.19-12.14,99.69-30.91c87.21-49.44,158.75-201.52,81.03-280.94c-0.31-0.32-0.64-0.65-0.96-0.97L457.37,191.84"/>
	<path class="st33" d="M191.85,469.1l0.82,0.81c-0.11-0.12-0.22-0.23-0.33-0.34C192.18,469.41,192.01,469.25,191.85,469.1
		 M158.37,435.78l2.3,2.29l1.08,1.08l0.06,0.06l28.51,28.36c-0.16-0.16-0.32-0.33-0.48-0.49l-0.82-0.81
		c-0.52-0.5-1.03-1.01-1.53-1.52l-28.51-28.36C158.77,436.18,158.57,435.99,158.37,435.78 M157.84,435.24
		c0.36,0.36,0.72,0.72,1.08,1.08L157.84,435.24 M454.54,189.01c77.72,79.41,6.18,231.5-81.03,280.94
		c-27.5,18.77-64.38,30.91-99.69,30.91c-29.41,0-57.74-8.43-78.66-28.47c0.11,0.12,0.22,0.23,0.33,0.34
		c0.16,0.16,0.32,0.33,0.48,0.49c0.51,0.52,1.02,1.03,1.54,1.53c0.16,0.16,0.32,0.31,0.48,0.46c20.92,20.04,49.25,28.47,78.66,28.47
		c35.32,0,72.19-12.14,99.69-30.91c87.21-49.44,158.75-201.52,81.03-280.94c-0.31-0.32-0.64-0.65-0.96-0.97L454.54,189.01"/>
	<path class="st34" d="M189.02,466.27l0.82,0.81c-0.11-0.12-0.22-0.23-0.33-0.34C189.35,466.58,189.18,466.42,189.02,466.27
		 M155.54,432.96l2.3,2.29l1.08,1.08l0.06,0.06l28.51,28.36c-0.16-0.16-0.32-0.33-0.48-0.49l-0.82-0.81
		c-0.52-0.5-1.02-1.01-1.53-1.52l-28.52-28.37C155.94,433.35,155.74,433.16,155.54,432.96 M155.02,432.42
		c0.35,0.35,0.7,0.71,1.06,1.06L155.02,432.42 M451.72,186.18c77.72,79.41,6.18,231.5-81.03,280.94
		c-27.5,18.77-64.38,30.91-99.69,30.91c-29.41,0-57.74-8.43-78.66-28.47c0.11,0.12,0.22,0.23,0.33,0.34
		c0.16,0.16,0.32,0.33,0.48,0.49c0.51,0.52,1.01,1.02,1.53,1.52c0.16,0.16,0.33,0.31,0.49,0.47c20.92,20.04,49.25,28.47,78.66,28.47
		c35.32,0,72.19-12.14,99.69-30.91c87.21-49.44,158.75-201.52,81.03-280.94c-0.31-0.32-0.64-0.65-0.96-0.97L451.72,186.18"/>
	<path class="st35" d="M186.2,463.44l0.82,0.81c-0.11-0.12-0.22-0.23-0.33-0.34C186.52,463.75,186.35,463.59,186.2,463.44
		 M152.71,430.13l2.31,2.29l1.06,1.06l0.07,0.07l28.52,28.37c-0.16-0.16-0.32-0.33-0.48-0.49l-0.82-0.81
		c-0.52-0.5-1.03-1.01-1.53-1.52l-28.51-28.36C153.12,430.52,152.91,430.33,152.71,430.13 M152.18,429.58
		c0.36,0.36,0.72,0.72,1.08,1.08L152.18,429.58 M448.89,183.35c77.72,79.41,6.18,231.5-81.03,280.94
		c-27.5,18.77-64.38,30.91-99.69,30.91c-29.41,0-57.74-8.43-78.66-28.47c0.11,0.12,0.22,0.23,0.33,0.34
		c0.16,0.16,0.32,0.33,0.48,0.49c0.51,0.52,1.02,1.02,1.53,1.52c0.16,0.16,0.32,0.31,0.49,0.47c20.92,20.04,49.25,28.47,78.66,28.47
		c35.32,0,72.19-12.14,99.69-30.91c87.21-49.44,158.75-201.52,81.03-280.94c-0.31-0.32-0.64-0.65-0.96-0.97L448.89,183.35"/>
	<path class="st36" d="M183.37,460.61l0.82,0.81c-0.11-0.12-0.22-0.23-0.33-0.34C183.69,460.92,183.53,460.76,183.37,460.61
		 M149.88,427.3l2.3,2.29l1.08,1.08l0.06,0.06l28.51,28.36c-0.16-0.16-0.32-0.33-0.48-0.49l-30.86-30.7
		C150.29,427.69,150.08,427.5,149.88,427.3 M149.35,426.75c0.36,0.36,0.72,0.72,1.08,1.08L149.35,426.75 M446.06,180.53
		c77.72,79.41,6.18,231.5-81.03,280.94c-27.5,18.77-64.38,30.91-99.69,30.91c-29.41,0-57.74-8.43-78.66-28.47
		c0.11,0.12,0.22,0.23,0.33,0.34c0.16,0.16,0.32,0.33,0.48,0.49c0.51,0.52,1.02,1.02,1.53,1.52c0.16,0.16,0.32,0.31,0.49,0.47
		c20.92,20.04,49.25,28.47,78.66,28.47c35.32,0,72.19-12.14,99.69-30.91c87.21-49.44,158.75-201.53,81.03-280.94
		c-0.31-0.32-0.64-0.65-0.96-0.97L446.06,180.53"/>
	<path class="st37" d="M147.05,424.47l2.3,2.29l1.08,1.08l0.06,0.06l30.86,30.7c-0.11-0.12-0.22-0.23-0.34-0.35l-33.35-33.18
		C147.46,424.87,147.25,424.67,147.05,424.47 M146.52,423.93c0.36,0.36,0.72,0.72,1.08,1.08L146.52,423.93 M325.13,422.22
		c-31.02,19.56-65.28,31.04-98.7,31.08c0,0,0,0-0.01,0c-0.06,0-0.13,0-0.19,0c-0.59,0-1.19,0-1.78-0.01
		c1.6,0.06,3.21,0.09,4.82,0.09C261.94,453.38,295.09,441.63,325.13,422.22 M437.06,201.9c4.5,23.81,3.18,50.82-4.96,79.43
		c0,0.01,0,0.01-0.01,0.02c-0.01,0.05-0.03,0.11-0.05,0.16c0,0,0,0,0,0c-0.01,0.02-0.02,0.05-0.02,0.08c0,0.01-0.01,0.02-0.01,0.03
		c-0.01,0.04-0.02,0.08-0.04,0.12c0,0.01-0.01,0.03-0.01,0.05c0,0.02-0.01,0.05-0.02,0.06c-0.01,0.03-0.02,0.06-0.03,0.09
		c-0.01,0.02-0.01,0.04-0.02,0.05c-0.01,0.03-0.01,0.05-0.02,0.07c-0.01,0.02-0.01,0.02-0.01,0.04c-0.01,0.04-0.02,0.07-0.03,0.11
		c0,0.01-0.01,0.03-0.01,0.04c-0.01,0.04-0.02,0.07-0.03,0.11c0,0.01-0.01,0.02-0.01,0.03c-0.01,0.03-0.02,0.07-0.03,0.1
		c0,0.01-0.01,0.02-0.01,0.03c-0.01,0.04-0.02,0.08-0.03,0.12c0,0.01,0,0.01-0.01,0.03c-0.01,0.04-0.02,0.08-0.04,0.12
		c-0.01,0.04-0.02,0.08-0.04,0.12c-0.01,0.02-0.01,0.03-0.01,0.05c-0.01,0.02-0.01,0.05-0.02,0.07c-0.01,0.02-0.01,0.04-0.02,0.06
		c-0.01,0.02-0.01,0.04-0.02,0.06c-0.02,0.05-0.03,0.11-0.05,0.16c0,0,0,0,0,0c-0.01,0.03-0.02,0.06-0.03,0.09
		c0,0.01,0,0.01-0.01,0.02c-2.55,8.64-5.64,17.11-9.21,25.4C437.88,273.82,444.27,236.52,437.06,201.9 M443.23,177.7
		c77.72,79.41,6.18,231.5-81.03,280.94c-27.5,18.77-64.38,30.91-99.69,30.91c-29.41,0-57.74-8.43-78.66-28.47
		c0.11,0.12,0.22,0.23,0.33,0.34c0.16,0.16,0.32,0.33,0.48,0.49c0.51,0.52,1.01,1.02,1.53,1.52c0.16,0.16,0.33,0.31,0.49,0.47
		c20.92,20.04,49.25,28.47,78.66,28.47c35.32,0,72.19-12.14,99.69-30.91c87.21-49.44,158.75-201.52,81.03-280.94
		c-0.31-0.32-0.64-0.65-0.96-0.97L443.23,177.7"/>
	<path class="st38" d="M226.43,453.3C226.43,453.3,226.43,453.3,226.43,453.3C226.43,453.3,226.43,453.3,226.43,453.3 M113.7,296.53
		c0,0.01,0,0.02-0.01,0.03C113.7,296.55,113.7,296.54,113.7,296.53 M113.74,296.37c0,0.01-0.01,0.03-0.01,0.04
		C113.73,296.39,113.73,296.38,113.74,296.37 M113.77,296.21c-0.01,0.03-0.01,0.06-0.02,0.1
		C113.75,296.28,113.76,296.24,113.77,296.21 M113.79,296.09c-0.01,0.03-0.01,0.05-0.02,0.08
		C113.78,296.14,113.79,296.11,113.79,296.09 M113.82,295.94c-0.01,0.04-0.02,0.07-0.02,0.11
		C113.81,296.02,113.82,295.97,113.82,295.94 M113.85,295.79c-0.01,0.04-0.02,0.08-0.02,0.12
		C113.84,295.87,113.84,295.83,113.85,295.79 M113.88,295.66c-0.01,0.04-0.02,0.09-0.03,0.13
		C113.86,295.74,113.87,295.71,113.88,295.66 M431.49,283.41c0,0.01,0,0.01-0.01,0.02C431.49,283.42,431.49,283.42,431.49,283.41
		 M431.52,283.32L431.52,283.32C431.52,283.32,431.52,283.32,431.52,283.32 M431.59,283.1c-0.01,0.02-0.01,0.03-0.02,0.06
		C431.57,283.14,431.58,283.12,431.59,283.1 M431.62,282.97c-0.01,0.02-0.01,0.05-0.02,0.07
		C431.61,283.02,431.62,282.99,431.62,282.97 M431.71,282.67c-0.01,0.04-0.02,0.08-0.04,0.12s-0.02,0.08-0.04,0.12
		c0.01-0.04,0.02-0.08,0.04-0.12C431.69,282.76,431.7,282.71,431.71,282.67 M431.75,282.53c-0.01,0.03-0.02,0.08-0.03,0.12
		C431.73,282.61,431.74,282.57,431.75,282.53 M431.79,282.4c-0.01,0.03-0.02,0.07-0.03,0.1
		C431.77,282.47,431.78,282.43,431.79,282.4 M431.83,282.26c-0.01,0.04-0.02,0.07-0.03,0.11
		C431.81,282.33,431.82,282.3,431.83,282.26 M431.87,282.11c-0.01,0.03-0.02,0.07-0.03,0.11
		C431.85,282.18,431.86,282.15,431.87,282.11 M431.91,282c-0.01,0.02-0.01,0.05-0.02,0.07C431.89,282.04,431.9,282.02,431.91,282
		 M431.95,281.85c-0.01,0.03-0.02,0.06-0.03,0.09C431.93,281.91,431.94,281.88,431.95,281.85 M431.98,281.74
		c0,0.02-0.01,0.03-0.01,0.05C431.97,281.77,431.98,281.75,431.98,281.74 M432.02,281.59c0,0.01-0.01,0.02-0.01,0.03
		C432.02,281.6,432.02,281.6,432.02,281.59 M432.05,281.5L432.05,281.5C432.05,281.51,432.05,281.51,432.05,281.5 M432.1,281.33
		c0,0.01,0,0.01-0.01,0.02C432.1,281.34,432.1,281.33,432.1,281.33 M405.48,140.13L405.48,140.13
		c16.03,15.94,26.92,37.14,31.58,61.77c7.21,34.62,0.82,71.93-14.78,106.93c-20.2,46.87-55.8,87.32-97.15,113.39
		c-30.04,19.41-63.19,31.16-95.85,31.16c-1.61,0-3.22-0.03-4.82-0.09c0,0,0,0,0,0c-33.06-0.4-60.45-12.03-80.13-31.55l2.19,2.18
		l1.08,1.08l0.06,0.06l33.35,33.18c0.11,0.12,0.22,0.23,0.34,0.35c0.16,0.16,0.32,0.33,0.48,0.49c0.51,0.52,1.02,1.02,1.53,1.52
		c0.16,0.16,0.32,0.31,0.49,0.47c20.92,20.04,49.25,28.47,78.66,28.47c35.32,0,72.19-12.14,99.69-30.91
		c87.21-49.44,158.75-201.53,81.03-280.94c-0.31-0.32-0.64-0.65-0.96-0.97L405.48,140.13 M316.64,108.62
		c-84.06,3.86-171.7,78.28-198.61,170.35c-1.64,5.62-3.02,11.19-4.15,16.68c1.12-5.49,2.5-11.05,4.15-16.68
		C144.94,186.9,232.58,112.48,316.64,108.62 M327.95,108.53L327.95,108.53L327.95,108.53 M327.85,108.53
		C327.86,108.53,327.85,108.53,327.85,108.53C327.86,108.53,327.86,108.53,327.85,108.53 M327.55,108.52c0.01,0,0.02,0,0.03,0
		C327.58,108.52,327.56,108.52,327.55,108.52 M327.44,108.52c0.02,0,0.03,0,0.04,0C327.47,108.52,327.45,108.52,327.44,108.52
		 M327.28,108.51c0.03,0,0.07,0,0.1,0C327.34,108.52,327.31,108.51,327.28,108.51 M327.16,108.51c0.02,0,0.04,0,0.06,0
		C327.2,108.51,327.19,108.51,327.16,108.51 M327.04,108.51c0.02,0,0.04,0,0.07,0C327.09,108.51,327.07,108.51,327.04,108.51
		 M326.89,108.5c0.04,0,0.07,0,0.11,0C326.96,108.51,326.93,108.51,326.89,108.5 M326.78,108.5c0.03,0,0.06,0,0.09,0
		C326.83,108.5,326.8,108.5,326.78,108.5 M326.66,108.5c0.03,0,0.05,0,0.08,0C326.71,108.5,326.68,108.5,326.66,108.5 M326.51,108.5
		c0.04,0,0.07,0,0.11,0C326.59,108.5,326.55,108.5,326.51,108.5 M326.39,108.49c0.04,0,0.08,0,0.11,0
		C326.47,108.49,326.43,108.49,326.39,108.49 M326.27,108.49c0.03,0,0.06,0,0.09,0C326.33,108.49,326.3,108.49,326.27,108.49
		 M326.14,108.49c0.03,0,0.07,0,0.1,0C326.21,108.49,326.18,108.49,326.14,108.49 M326.01,108.49c0.04,0,0.07,0,0.12,0
		C326.09,108.49,326.05,108.49,326.01,108.49 M325.89,108.48c0.03,0,0.06,0,0.09,0C325.95,108.49,325.92,108.48,325.89,108.48
		 M325.77,108.48c0.03,0,0.06,0,0.09,0C325.83,108.48,325.8,108.48,325.77,108.48 M325.63,108.48c0.04,0,0.07,0,0.12,0
		C325.7,108.48,325.66,108.48,325.63,108.48 M325.51,108.48c0.03,0,0.06,0,0.1,0C325.57,108.48,325.54,108.48,325.51,108.48
		 M325.39,108.48c0.03,0,0.05,0,0.08,0C325.45,108.48,325.42,108.48,325.39,108.48 M325.24,108.47c0.04,0,0.08,0,0.11,0
		C325.32,108.48,325.28,108.48,325.24,108.47"/>
	
		<linearGradient id="SVGID_1_" gradientUnits="userSpaceOnUse" x1="0" y1="-1.070301e-06" x2="1" y2="-1.070301e-06" gradientTransform="matrix(-165.6607 -281.765 271.4801 -169.7821 370.5306 443.622)">
		<stop  offset="0" style="stop-color:#1DAF97"/>
		<stop  offset="1.302083e-03" style="stop-color:#1DAF97"/>
		<stop  offset="1" style="stop-color:#9CD3AC"/>
	</linearGradient>
	<path class="st39" d="M265.74,359.5c-6.49-41.25,19.9-75.63,54.28-75.63c21.63,0,31.55,13.25,23.14,36.38
		c-8.78,24.13-33.16,39.25-65.29,39.25H265.74 M190.9,359.38c-3.63,0-4.73-3.5-2.37-6.88c10.09-13.63,15.11-22.63,21.57-40.38
		l26.34-72.38c4.32-11.88,5.53-22.75,4.85-31.88c-0.08-2.88,3.18-6,8.31-6c68.88,0-6.28,106.88-4.59,155.14
		c-0.07,0.87,0.16,1.62,0.14,2.37H190.9 M299.3,201.97c3.85,0,8.08-0.13,12.48-0.26c4.4-0.13,8.97-0.26,13.52-0.26
		c25.57,0,50.37,4.05,39.13,34.91c-14.29,39.25-45.36,22.63-78.5,41.88c10.66-26.88,19.52-59.13,8.05-76.38
		C295.65,201.94,297.43,201.97,299.3,201.97 M323.46,108.46c-2.27,0-4.54,0.05-6.82,0.16c-84.06,3.86-171.7,78.28-198.61,170.35
		c-1.64,5.63-3.02,11.19-4.15,16.68l0,0.01c-0.01,0.05-0.02,0.08-0.03,0.13l0,0c-0.01,0.04-0.02,0.08-0.02,0.12
		c0,0.01,0,0.02-0.01,0.03c-0.01,0.03-0.02,0.08-0.02,0.11c0,0.02,0,0.02-0.01,0.04c0,0.02-0.01,0.06-0.02,0.08
		c0,0.02-0.01,0.03-0.01,0.04c-0.01,0.03-0.01,0.07-0.02,0.1c0,0.02-0.01,0.04-0.01,0.06c0,0.02-0.01,0.03-0.01,0.04
		c-0.01,0.04-0.02,0.08-0.02,0.12c0,0.01,0,0.02-0.01,0.03c-10.32,51.61,1.98,96.76,30.63,125.18
		c19.68,19.52,47.06,31.14,80.13,31.55l0,0c0.59,0.01,1.19,0.01,1.78,0.01c0.06,0,0.13,0,0.19,0c0.01,0,0,0,0.01,0
		c33.42-0.05,67.68-11.52,98.7-31.08c41.36-26.08,76.96-66.52,97.15-113.39c3.57-8.28,6.65-16.75,9.21-25.4c0-0.01,0-0.01,0.01-0.02
		c0.01-0.03,0.02-0.06,0.03-0.09l0,0c0.02-0.05,0.03-0.11,0.05-0.16c0.01-0.02,0.01-0.03,0.02-0.06c0.01-0.02,0.01-0.04,0.02-0.06
		c0.01-0.02,0.01-0.05,0.02-0.07c0.01-0.02,0.01-0.03,0.01-0.05c0.01-0.04,0.02-0.08,0.04-0.12s0.02-0.08,0.04-0.12
		c0-0.01,0-0.01,0.01-0.03c0.01-0.03,0.02-0.08,0.03-0.12c0-0.01,0.01-0.02,0.01-0.03c0.01-0.03,0.02-0.07,0.03-0.1
		c0-0.01,0.01-0.02,0.01-0.03c0.01-0.04,0.02-0.07,0.03-0.11c0-0.01,0.01-0.03,0.01-0.04c0.01-0.03,0.02-0.07,0.03-0.11
		c0.01-0.02,0.01-0.02,0.01-0.04c0.01-0.02,0.01-0.05,0.02-0.07c0.01-0.02,0.01-0.04,0.02-0.05c0.01-0.03,0.02-0.06,0.03-0.09
		c0.01-0.02,0.01-0.05,0.02-0.06c0.01-0.02,0.01-0.03,0.01-0.05c0.01-0.04,0.02-0.08,0.04-0.12c0-0.01,0.01-0.02,0.01-0.03
		c0.01-0.02,0.02-0.05,0.02-0.08l0,0c0.01-0.05,0.03-0.11,0.05-0.16c0-0.01,0-0.01,0.01-0.02c8.14-28.61,9.47-55.62,4.96-79.43
		c-4.66-24.63-15.55-45.82-31.58-61.77c-19.14-19.04-45.61-30.6-77.52-31.59l0,0c-0.03,0-0.06,0-0.09,0c-0.01,0,0,0,0,0
		c-0.09,0-0.18-0.01-0.27-0.01c-0.01,0-0.02,0-0.03,0c-0.02,0-0.05,0-0.07,0c-0.02,0-0.03,0-0.04,0c-0.02,0-0.04,0-0.06,0
		c-0.03,0-0.07,0-0.1,0c-0.02,0-0.03,0-0.05,0c-0.02,0-0.04,0-0.06,0c-0.02,0-0.03,0-0.05,0c-0.02,0-0.04,0-0.07,0
		c-0.02,0-0.03,0-0.05,0c-0.04,0-0.07,0-0.11,0c-0.01,0-0.02,0-0.03,0c-0.03,0-0.06,0-0.09,0c-0.02,0-0.02,0-0.04,0
		c-0.03,0-0.05,0-0.08,0c-0.01,0-0.03,0-0.04,0c-0.04,0-0.07,0-0.11,0l-0.01,0c-0.04,0-0.08,0-0.11,0c-0.01,0-0.02,0-0.03,0
		c-0.03,0-0.06,0-0.09,0c-0.01,0-0.02,0-0.03,0c-0.03,0-0.07,0-0.1,0c-0.01,0-0.01,0-0.02,0c-0.04,0-0.07,0-0.12,0
		c-0.01,0-0.02,0-0.02,0c-0.03,0-0.06,0-0.09,0c-0.01,0-0.02,0-0.04,0c-0.03,0-0.06,0-0.09,0c-0.01,0-0.02,0-0.03,0
		c-0.04,0-0.07,0-0.12,0c-0.01,0-0.02,0-0.02,0c-0.03,0-0.06,0-0.1,0c-0.01,0-0.02,0-0.03,0c-0.03,0-0.05,0-0.08,0
		c-0.01,0-0.02,0-0.03,0c-0.04,0-0.08,0-0.11,0l0,0C324.65,108.47,324.05,108.46,323.46,108.46"/>
	<path class="st40" d="M224.45,453.29c136.33,4.88,284.17-199.04,181.03-313.16l36.79,36.6c79.25,79.14,7.49,232.27-80.07,281.9
		c-51.46,35.11-135.74,47.05-181.18-0.39l-36.79-36.6C163.91,441.22,191.33,452.89,224.45,453.29z"/>
	<path class="st40" d="M222.71,450.32c86.62,1.06,179.39-75.27,207.22-170.49c13.46-46.06,9.26-88.11-8.47-119.36
		c19.19,31.54,24.11,74.79,10.22,122.33c-27.83,95.22-120.61,171.55-207.22,170.49c-44.71-0.55-79.03-21.61-97.95-54.96
		C145.75,429.96,179.34,449.79,222.71,450.32z"/>
	
		<linearGradient id="SVGID_2_" gradientUnits="userSpaceOnUse" x1="0" y1="-0.124" x2="1" y2="-0.124" gradientTransform="matrix(-165.6607 -281.765 271.4801 -169.7821 370.5306 443.622)">
		<stop  offset="0" style="stop-color:#289A86"/>
		<stop  offset="1.302083e-03" style="stop-color:#289A86"/>
		<stop  offset="1" style="stop-color:#89B495"/>
	</linearGradient>
	<path class="st41" d="M249.61,201.87c-5.13,0-8.39,3.13-8.31,6c0.68,9.13-0.53,20-4.85,31.88l-26.34,72.38
		c-6.46,17.75-11.49,26.75-21.57,40.38c-2.35,3.38-1.25,6.88,2.37,6.88h54.25c0.02-0.75-0.2-1.5-0.14-2.37
		C243.33,308.75,318.49,201.87,249.61,201.87"/>
	
		<linearGradient id="SVGID_3_" gradientUnits="userSpaceOnUse" x1="0" y1="0.1916" x2="1" y2="0.1916" gradientTransform="matrix(-165.6607 -281.765 271.4801 -169.7821 370.5306 443.622)">
		<stop  offset="0" style="stop-color:#289A86"/>
		<stop  offset="1.302083e-03" style="stop-color:#289A86"/>
		<stop  offset="1" style="stop-color:#89B495"/>
	</linearGradient>
	<path class="st42" d="M325.3,201.46c-4.55,0-9.12,0.13-13.52,0.26c-4.4,0.13-8.63,0.26-12.48,0.26c-1.87,0-3.65-0.03-5.31-0.1
		c11.47,17.25,2.61,49.5-8.05,76.38c33.13-19.25,64.21-2.63,78.5-41.88C375.67,205.51,350.87,201.46,325.3,201.46"/>
	
		<linearGradient id="SVGID_4_" gradientUnits="userSpaceOnUse" x1="0" y1="7.197284e-03" x2="1" y2="7.197284e-03" gradientTransform="matrix(-165.6607 -281.765 271.4801 -169.7821 370.5306 443.622)">
		<stop  offset="0" style="stop-color:#289A86"/>
		<stop  offset="1.302083e-03" style="stop-color:#289A86"/>
		<stop  offset="1" style="stop-color:#89B495"/>
	</linearGradient>
	<path class="st43" d="M320.02,283.87c-34.38,0-60.77,34.38-54.28,75.63h12.13c32.13,0,56.51-15.13,65.29-39.25
		C351.57,297.12,341.64,283.87,320.02,283.87"/>
	<path class="st0" d="M177.45,341.42c10.09-13.63,15.11-22.63,21.57-40.38l26.34-72.38c4.32-11.88,5.53-22.75,4.85-31.88
		c-0.08-2.88,3.18-6,8.31-6c68.88,0-6.28,106.88-4.59,155.14c-0.07,0.87,0.16,1.62,0.14,2.37h-54.25
		C176.2,348.3,175.1,344.8,177.45,341.42z"/>
	<path class="st0" d="M274.86,267.17c33.13-19.25,64.21-2.62,78.5-41.88c16.2-44.5-42.53-33.25-70.45-34.5
		C294.38,208.04,285.52,240.29,274.86,267.17z"/>
	<path class="st0" d="M308.94,272.79c21.63,0,31.55,13.25,23.14,36.38c-8.78,24.13-33.16,39.25-65.29,39.25h-12.13
		C248.17,307.17,274.56,272.79,308.94,272.79z"/>
</g>
</svg>
